<svg width="32" height="32" viewBox="0 0 32 32" fill="none" xmlns="http://www.w3.org/2000/svg">
  <!-- Gradient definition -->
  <defs>
    <linearGradient id="gradient" x1="0%" y1="0%" x2="100%" y2="100%">
      <stop offset="0%" style="stop-color:#3b82f6;stop-opacity:1" />
      <stop offset="100%" style="stop-color:#8b5cf6;stop-opacity:1" />
    </linearGradient>
  </defs>
  
  <!-- Background circle with gradient -->
  <circle cx="16" cy="16" r="15" fill="url(#gradient)"/>
  
  <!-- Stylized "S" letter -->
  <path d="M11 9 C11 10.5, 12.5 11.5, 14.5 11.5 C16.5 11.5, 18 10.5, 18 9 C18 7.5, 16.5 6.5, 14.5 6.5 C12.5 6.5, 11 7.5, 11 9 Z" 
        fill="white" opacity="0.95"/>
  <path d="M11 16 C11 17.5, 12.5 18.5, 14.5 18.5 C16.5 18.5, 18 17.5, 18 16 C18 14.5, 16.5 13.5, 14.5 13.5 C12.5 13.5, 11 14.5, 11 16 Z" 
        fill="white" opacity="0.95"/>
  <path d="M11 23 C11 24.5, 12.5 25.5, 14.5 25.5 C16.5 25.5, 18 24.5, 18 23 C18 21.5, 16.5 20.5, 14.5 20.5 C12.5 20.5, 11 21.5, 11 23 Z" 
        fill="white" opacity="0.95"/>
  
  <!-- Connecting curves for smooth "S" shape -->
  <path d="M14.5 11.5 Q16 12.5, 16.5 13.5" stroke="white" stroke-width="1.5" fill="none" opacity="0.8"/>
  <path d="M14.5 18.5 Q16 19.5, 16.5 20.5" stroke="white" stroke-width="1.5" fill="none" opacity="0.8"/>
</svg>
